<?xml version="1.0" encoding="UTF-8"?>
<!DOCTYPE svg PUBLIC "-//W3C//DTD SVG 1.1//EN" "http://www.w3.org/Graphics/SVG/1.1/DTD/svg11.dtd">
<!-- Creator: CorelDRAW 2021 (64-Bit) -->
<svg xmlns="http://www.w3.org/2000/svg" xml:space="preserve" width="250px" height="250px" version="1.1" style="shape-rendering:geometricPrecision; text-rendering:geometricPrecision; image-rendering:optimizeQuality; fill-rule:evenodd; clip-rule:evenodd"
viewBox="0 0 250 250"
 xmlns:xlink="http://www.w3.org/1999/xlink"
 xmlns:xodm="http://www.corel.com/coreldraw/odm/2003">
 <defs>
  <style type="text/css">
   <![CDATA[
    .fil1 {fill:#444B54}
    .fil0 {fill:#73C3FE}
    .fil2 {fill:#FEFFFF}
   ]]>
  </style>
 </defs>
 <g id="Capa_x0020_1">
  <metadata id="CorelCorpID_0Corel-Layer"/>
  <path class="fil0" d="M195.85 22.6c-13.61,26.98 -107.5,88.72 -96.63,133.86 45.7,-4.28 101.23,-74.03 125.85,-95.26 3.88,31.89 -40.05,40.08 -28.9,51.18 7.3,7.28 13.41,-13.06 33.26,-22.6 8.33,-11.15 10.89,-10.11 9.67,-27.98 -1.14,-16.7 16.33,-46.46 -15.14,-51.99 -13.82,-2.43 -18.76,6.18 -28.11,12.79z"/>
  <path class="fil1" d="M229.43 131.89c-8.81,5.05 -4.54,-4.14 -7.11,11.21l-3 80.21c-19.79,4.72 -170.83,4.74 -190.59,0 -4.99,-20.54 -4.98,-169.98 -0.01,-190.59 24.39,-5.83 87.38,-2.6 117.87,-2.6 14.8,-2.91 6.27,1.6 11.22,-7.52 -0.8,-0.51 -2.14,-1.97 -2.59,-1.15l-129.13 -2.62 -10.49 12.1 -0.8 195.01 12.1 10.49 195 0.81c15.25,-17.59 11.14,-12.01 11.31,-60.26 0.02,-7.46 0.37,-15.54 0.27,-22.87l-4.05 -22.22z"/>
  <path class="fil2" d="M113 140c26.58,-7.97 52.03,-36.08 66.51,-50.6 17.29,-17.33 61,-51.97 47.4,-64.35 -13.24,-12.08 -46.35,29.91 -64.12,47.64 -14.45,14.41 -42.72,41.25 -49.79,67.31z"/>
 </g>
</svg>
