<?xml version="1.0" encoding="UTF-8"?>
<!DOCTYPE svg PUBLIC "-//W3C//DTD SVG 1.1//EN" "http://www.w3.org/Graphics/SVG/1.1/DTD/svg11.dtd">
<!-- Creator: CorelDRAW 2021 (64-Bit) -->
<svg xmlns="http://www.w3.org/2000/svg" xml:space="preserve" width="100px" height="100px" version="1.1" style="shape-rendering:geometricPrecision; text-rendering:geometricPrecision; image-rendering:optimizeQuality; fill-rule:evenodd; clip-rule:evenodd"
viewBox="0 0 100 100"
 xmlns:xlink="http://www.w3.org/1999/xlink"
 xmlns:xodm="http://www.corel.com/coreldraw/odm/2003">
 <defs>
  <style type="text/css">
   <![CDATA[
    .fil0 {fill:black}
   ]]>
  </style>
 </defs>
 <g id="Capa_x0020_1">
  <metadata id="CorelCorpID_0Corel-Layer"/>
  <path class="fil0" d="M80.29 77.33c-4.38,3.35 -3.75,4.07 -3.73,7.27 0.1,12.24 3.32,9.46 -23.37,9.46l-33.1 0c-13.95,0 -11.32,3.93 -11.32,-21.6 0.01,-7.23 0,-14.46 0,-21.7 0,-7.23 0.01,-14.47 0,-21.7 0,-3.55 0,-7.11 0,-10.67 0,-13.64 -2.5,-10.93 16.48,-10.93 5.62,0 11.27,0 16.91,0 3.75,0 31.97,-0.29 33.08,0.15 2.06,0.81 1.35,5.44 1.32,9.31 -0.02,2.54 -0.44,3.25 0.97,4.72 0.77,0.8 1.94,1.94 2.77,2.55 0.84,-22.43 0.28,-20.51 -14.97,-20.51l-53.34 -0.01c-7.43,0.03 -6.99,4.31 -6.99,11.05l0 71.72c0,13.83 1.01,11.39 24.29,11.39 11.89,0.01 23.78,0 35.68,0 15.06,0 16.43,2.22 15.32,-20.5l0 0z"/>
  <path class="fil0" d="M92.43 48.8c-8.06,0.63 -39.08,0.09 -51.37,0.07 -2.24,0 -5.93,-0.66 -5.93,1.89 0,2.48 3.39,1.89 5.56,1.89 12.19,-0.04 43.93,-0.55 51.75,0.07 -2.79,3.26 -10.54,10.63 -14.37,14.45 -1.6,1.6 -4,2.87 -2.95,5.78 2.79,0.74 3.74,-1.13 5.12,-2.51l16.41 -16.31c4.42,-4.39 3.43,-3.31 -6.63,-13.34l-12.27 -12.05c-2.26,-1.26 -4.3,1.04 -1.72,3.6 2.84,2.83 5.44,5.41 8.29,8.26 2.66,2.67 5.76,5.46 8.11,8.2l0 0z"/>
 </g>
</svg>
