<?xml version="1.0" encoding="UTF-8"?>
<!DOCTYPE svg PUBLIC "-//W3C//DTD SVG 1.1//EN" "http://www.w3.org/Graphics/SVG/1.1/DTD/svg11.dtd">
<!-- Creator: CorelDRAW 2021 (64-Bit) -->
<svg xmlns="http://www.w3.org/2000/svg" xml:space="preserve" width="250px" height="250px" version="1.1" style="shape-rendering:geometricPrecision; text-rendering:geometricPrecision; image-rendering:optimizeQuality; fill-rule:evenodd; clip-rule:evenodd"
viewBox="0 0 250 250"
 xmlns:xlink="http://www.w3.org/1999/xlink"
 xmlns:xodm="http://www.corel.com/coreldraw/odm/2003">
 <defs>
  <style type="text/css">
   <![CDATA[
    .fil0 {fill:#22232D}
    .fil3 {fill:#78CDD3}
    .fil2 {fill:#AC7253}
    .fil1 {fill:#E5D1C3}
   ]]>
  </style>
 </defs>
 <g id="Capa_x0020_1">
  <metadata id="CorelCorpID_0Corel-Layer"/>
  <g id="_1731166353648">
   <path class="fil0" d="M158.45 50.19c-2.78,-7.94 1.18,-3.03 -6.47,-8.46 -11.01,-7.84 -27.82,-9.49 -41.02,-5.99 -10.73,2.84 -32.19,20.21 -35.28,32 -1.67,6.39 -2.93,41.57 4.77,55.48 4,7.24 1.53,0.69 4.41,10.53 2.21,7.57 0.36,5.55 5.29,12.14l6.03 6.42c8.73,8.3 7.58,4.11 8.4,14.01 -26.82,6.25 -47.31,15.32 -47.31,42.33l134.46 0c0,-15.42 -5.37,-24.15 -14.89,-29.93 -4.64,-2.81 -26.25,-10.96 -32.42,-12.4 0.83,-9.9 -0.04,-5.82 5.74,-11.69 19.25,-19.54 8.85,-10.23 15.71,-26.62l2.69 -4.79c2.99,-5.41 0.48,1.44 3.4,-6.62 4.6,-12.74 -0.3,-37.2 -3.35,-49.21 -2.89,-11.38 -0.32,-3.16 0.71,-15.61 -7.74,-1.85 -3.18,-1.2 -10.87,-1.59z"/>
   <path class="fil1" d="M81.26 101.83c-1.37,5.56 -0.28,10.02 2.49,15.36 6.11,11.76 2.21,-0.66 6.48,16.27 3.15,12.52 10.88,18.52 21.66,23.6l-3.49 13.44 20.68 3.31 10.79 -4.06 -1.84 -10.75c13.47,-14.73 15.47,-6.35 21.52,-29.81 3.74,-14.49 6.3,-6.91 9.42,-25.12 -4.2,-2.47 -2.86,1.51 -7.13,0l-6.94 -31.06c-22.18,2.75 -29.97,7.76 -50.25,-2.61l-5.3 -0.93c-10.22,25.83 -8.52,32 -17.17,38.47 -3.63,-2.44 -0.27,-0.11 -0.92,-6.11z"/>
   <path class="fil2" d="M81.26 101.83c0.65,6 -2.71,3.67 0.92,6.11 8.65,-6.47 6.95,-12.64 17.17,-38.47l5.3 0.93c23.58,1.09 21.17,8.57 49.72,-0.85 4,9.91 5.94,18.67 9.44,29.71 12.65,-14.29 0.59,-30.98 -0.03,-33.81 -1.52,-6.91 -0.09,-2.14 2.82,-11.09l-8.15 -4.17c-18.12,-11.68 -38.64,-22.22 -59.76,-4.3 -3.19,2.71 -6.03,5.51 -10.41,9.52 -3.39,3.09 -6.67,5.99 -8.8,11.16 -6.07,14.72 1.57,23.29 1.78,35.26z"/>
   <path class="fil3" d="M129.08 173.81c-10.23,6.62 -55.86,-9.67 -65.89,29.83l121.07 0c-6.56,-31.62 -25.53,-18.82 -44.39,-33.89l-10.79 4.06z"/>
  </g>
 </g>
</svg>
