<?xml version="1.0" encoding="UTF-8"?>
<!DOCTYPE svg PUBLIC "-//W3C//DTD SVG 1.1//EN" "http://www.w3.org/Graphics/SVG/1.1/DTD/svg11.dtd">
<!-- Creator: CorelDRAW 2021 (64-Bit) -->
<svg xmlns="http://www.w3.org/2000/svg" xml:space="preserve" width="250px" height="250px" version="1.1" style="shape-rendering:geometricPrecision; text-rendering:geometricPrecision; image-rendering:optimizeQuality; fill-rule:evenodd; clip-rule:evenodd"
viewBox="0 0 250 250"
 xmlns:xlink="http://www.w3.org/1999/xlink"
 xmlns:xodm="http://www.corel.com/coreldraw/odm/2003">
 <defs>
  <style type="text/css">
   <![CDATA[
    .fil0 {fill:black}
   ]]>
  </style>
 </defs>
 <g id="Capa_x0020_1">
  <metadata id="CorelCorpID_0Corel-Layer"/>
  <g id="_2192525523712">
   <path class="fil0" d="M38.53 163.53l171.21 -2c0.42,17.89 -35.87,56.5 -85.74,56.5 -44.56,0 -53.86,-16.81 -70.69,-29.88 -8.44,-6.56 -13.72,-23 -14.78,-24.62zm-12.24 -68.49c12.47,-4.75 182.95,-4.75 195.42,0l2.03 57.92c-12.81,4.28 -189.92,3.8 -194.88,0.55 -8.22,-5.4 -6.22,-48.88 -2.57,-58.47zm183.45 -10.24c-65.48,1.65 -147.48,3.69 -171.48,0 -0.43,-16.39 23.18,-29.57 23.2,-29.59 6.61,-6.85 -5.47,1.76 6.43,-9.06 23.29,-21.19 90.2,-19.74 110.5,-1.27 8.49,7.73 31.63,29.14 31.35,39.92zm-107.62 -60.8c-67.91,14.61 -133.43,108.22 -39.61,183.37 23.21,18.6 56.14,24.11 84.85,18.03 55.11,-11.65 137.89,-104.86 38.13,-184.77 -25.15,-20.14 -52.82,-23.2 -83.37,-16.63z"/>
   <path class="fil0" d="M166.82 140.79c12.42,-6.54 6.82,-5 12.25,-16.45 7.91,10.9 0.37,8.33 10.56,15.16 9.32,-6.27 14.63,-22.56 9.19,-31.79 -13.85,7.9 0.25,1.22 -10.32,16 -5.35,-11.13 0.01,-10.13 -11.14,-15.95l-6.99 18.75c-5.64,-11.14 0.15,-17.92 -14.33,-17.02l10.78 31.3z"/>
   <path class="fil0" d="M111.51 140.47c11.95,-6.47 5.51,-5.53 12.49,-17.31 6.98,11.78 0.54,10.84 12.49,17.31 5.31,-8.96 11.01,-24.19 6.39,-32.45 -11.4,8.57 -2.77,3.72 -8.56,15.41 -7.72,-10.83 -0.05,-8.05 -10.32,-14.93 -10.27,6.88 -2.6,4.1 -10.32,14.93 -6.03,-12.17 3.15,-7.16 -8.84,-15.24 -4.06,8.97 1.48,23.51 6.67,32.28z"/>
   <path class="fil0" d="M58.37 139.5c10.19,-6.83 2.65,-4.26 10.56,-15.16 5.43,11.45 -0.17,9.91 11.32,16.13l11.87 -31.25c-14.96,-0.15 -8.71,5.83 -13.79,17.08l-6.53 -18.89c-12.31,6.17 -6.94,5.17 -12.3,16.3 -10.77,-15.06 3.83,-8.35 -10.55,-15.88 -4.33,8.73 1.24,26.16 9.42,31.67z"/>
   <path class="fil0" d="M77.13 67.75c0,3.72 6.69,6.84 4.82,0 -1.8,-6.52 -4.82,-5.69 -4.82,0z"/>
   <path class="fil0" d="M120.87 67.75c0,3.72 6.7,6.84 4.82,0 -1.78,-6.52 -4.82,-5.69 -4.82,0z"/>
   <path class="fil0" d="M164.62 67.75c0,3.72 6.7,6.84 4.83,0 -1.8,-6.52 -4.83,-5.69 -4.83,0z"/>
   <path class="fil0" d="M158.38 192.75c0,3.72 6.69,6.84 4.82,0 -1.79,-6.52 -4.82,-5.69 -4.82,0z"/>
   <path class="fil0" d="M95.88 192.75c0,3.72 6.69,6.84 4.82,0 -1.79,-6.52 -4.82,-5.69 -4.82,0z"/>
   <path class="fil0" d="M120.87 192.75c0,3.72 6.7,6.84 4.82,0 -1.78,-6.52 -4.82,-5.69 -4.82,0z"/>
   <path class="fil0" d="M120.87 42.75c0,3.72 6.7,6.83 4.82,0 -1.78,-6.52 -4.82,-5.69 -4.82,0z"/>
   <path class="fil0" d="M120.87 80.25c0,3.73 6.7,6.83 4.82,0 -1.78,-6.52 -4.82,-5.69 -4.82,0z"/>
   <path class="fil0" d="M120.87 167.75c0,3.73 6.7,6.83 4.82,0 -1.78,-6.52 -4.82,-5.69 -4.82,0z"/>
   <path class="fil0" d="M120.87 205.25c0,3.73 6.7,6.83 4.82,0 -1.78,-6.52 -4.82,-5.69 -4.82,0z"/>
   <path class="fil0" d="M149 136.5c0,3.72 6.7,6.83 4.82,0 -1.79,-6.52 -4.82,-5.69 -4.82,0z"/>
   <path class="fil0" d="M167.75 167.75c0,3.73 6.69,6.83 4.82,0 -1.79,-6.52 -4.82,-5.69 -4.82,0z"/>
   <path class="fil0" d="M167.75 80.25c0,3.73 6.69,6.83 4.82,0 -1.79,-6.52 -4.82,-5.69 -4.82,0z"/>
   <path class="fil0" d="M95.88 55.25c0,3.72 6.69,6.83 4.82,0 -1.79,-6.52 -4.82,-5.69 -4.82,0z"/>
   <path class="fil0" d="M120.87 55.25c0,3.72 6.7,6.83 4.82,0 -1.78,-6.52 -4.82,-5.69 -4.82,0z"/>
   <path class="fil0" d="M158.38 55.25c0,3.72 6.69,6.83 4.82,0 -1.79,-6.52 -4.82,-5.69 -4.82,0z"/>
   <path class="fil0" d="M120.87 180.25c0,3.72 6.7,6.83 4.82,0 -1.78,-6.52 -4.82,-5.69 -4.82,0z"/>
   <path class="fil0" d="M164.62 180.25c0,3.72 6.7,6.83 4.83,0 -1.8,-6.52 -4.83,-5.69 -4.83,0z"/>
   <path class="fil0" d="M77.13 180.25c0,3.72 6.69,6.83 4.82,0 -1.8,-6.52 -4.82,-5.69 -4.82,0z"/>
   <path class="fil0" d="M70.88 192.75c0,3.72 6.69,6.84 4.81,0 -1.78,-6.52 -4.81,-5.69 -4.81,0z"/>
   <path class="fil0" d="M108.38 192.75c0,3.72 6.69,6.84 4.81,0 -1.78,-6.52 -4.81,-5.69 -4.81,0z"/>
   <path class="fil0" d="M133.38 192.75c0,3.72 6.69,6.84 4.81,0 -1.78,-6.52 -4.81,-5.69 -4.81,0z"/>
   <path class="fil0" d="M170.88 192.75c0,3.72 6.69,6.84 4.81,0 -1.78,-6.52 -4.81,-5.69 -4.81,0z"/>
   <path class="fil0" d="M83.38 192.75c0,3.72 6.69,6.84 4.81,0 -1.79,-6.52 -4.81,-5.69 -4.81,0z"/>
   <path class="fil0" d="M145.88 192.75c0,3.72 6.69,6.84 4.81,0 -1.79,-6.52 -4.81,-5.69 -4.81,0z"/>
   <path class="fil0" d="M89.63 205.25c0,3.73 6.69,6.83 4.81,0 -1.78,-6.52 -4.81,-5.69 -4.81,0z"/>
   <path class="fil0" d="M152.13 205.25c0,3.73 6.69,6.83 4.81,0 -1.78,-6.52 -4.81,-5.69 -4.81,0z"/>
   <path class="fil0" d="M152.13 42.75c0,3.72 6.69,6.83 4.81,0 -1.78,-6.52 -4.81,-5.69 -4.81,0z"/>
   <path class="fil0" d="M89.63 42.75c0,3.72 6.69,6.83 4.81,0 -1.78,-6.52 -4.81,-5.69 -4.81,0z"/>
   <path class="fil0" d="M74 80.25c0,3.73 6.69,6.83 4.82,0 -1.79,-6.52 -4.82,-5.69 -4.82,0z"/>
   <path class="fil0" d="M74 167.75c0,3.73 6.69,6.83 4.82,0 -1.79,-6.52 -4.82,-5.69 -4.82,0z"/>
   <path class="fil0" d="M92.75 136.5c0,3.72 6.69,6.83 4.82,0 -1.79,-6.52 -4.82,-5.69 -4.82,0z"/>
   <path class="fil0" d="M70.88 55.25c0,3.72 6.69,6.83 4.81,0 -1.78,-6.52 -4.81,-5.69 -4.81,0z"/>
   <path class="fil0" d="M170.88 55.25c0,3.72 6.69,6.83 4.81,0 -1.78,-6.52 -4.81,-5.69 -4.81,0z"/>
   <path class="fil0" d="M133.38 55.25c0,3.72 6.69,6.83 4.81,0 -1.78,-6.52 -4.81,-5.69 -4.81,0z"/>
   <path class="fil0" d="M108.38 55.25c0,3.72 6.69,6.83 4.81,0 -1.78,-6.52 -4.81,-5.69 -4.81,0z"/>
   <path class="fil0" d="M145.88 55.25c0,3.72 6.69,6.83 4.81,0 -1.79,-6.52 -4.81,-5.69 -4.81,0z"/>
   <path class="fil0" d="M83.38 55.25c0,3.72 6.69,6.83 4.81,0 -1.79,-6.52 -4.81,-5.69 -4.81,0z"/>
  </g>
 </g>
</svg>
